# xmcd CD database file
#
# Track frame offsets:
#	150
#	12838
#	25265
#	35928
#	43885
#	54920
#	63510
#	75340
#	87658
#	102218
#	116078
#	125310
#	139965
#	151780
#	162380
#
# Disc length: 2328 seconds
#
# Revision: 2
# Processed by: cddbd v1.5.2PL0 Copyright (c) Steve Scherf et al.
# Submitted via: CDex 1.70beta1
#
DISCID=c509160f
DTITLE=森山良子 - この広い野原いっぱい～森山良子フォーク・アルバムNo.1
DYEAR=1998
DGENRE=J-POP
TTITLE0=この広い野原いっぱい
TTITLE1=きっと天使が
TTITLE2=真白き富士の嶺
TTITLE3=花いちりん
TTITLE4=中国地方の子守唄
TTITLE5=一番星の歌
TTITLE6=眠れ良い子
TTITLE7=朝日のあたる家
TTITLE8=美しい町
TTITLE9=あなたが去る時まで
TTITLE10=セットル/ダウン
TTITLE11=2ペンスを鳩に
TTITLE12=サムホエア
TTITLE13=カルタース/キャンデイ
TTITLE14=この広い野原いっぱい オリジナル/カラオケ
EXTD=YEAR: 1998
EXTT0=
EXTT1=
EXTT2=
EXTT3=
EXTT4=
EXTT5=
EXTT6=
EXTT7=
EXTT8=
EXTT9=
EXTT10=
EXTT11=
EXTT12=
EXTT13=
EXTT14=
PLAYORDER=
